<svg xmlns="http://www.w3.org/2000/svg" width="32" height="32" viewBox="0 0 256 256"><path fill="currentColor" d="M193 94a46 46 0 0 0-31-80H94a46 46 0 0 0-31 80a46 46 0 0 0 0 68a46 46 0 1 0 77 34v-27.6a45.2 45.2 0 0 0 22 5.6a46 46 0 0 0 31-80Zm-9-34a22.1 22.1 0 0 1-22 22h-22V38h22a22.1 22.1 0 0 1 22 22ZM72 60a22.1 22.1 0 0 1 22-22h22v44H94a22.1 22.1 0 0 1-22-22Zm0 68a22.1 22.1 0 0 1 22-22h22v44H94a22.1 22.1 0 0 1-22-22Zm44 68a22 22 0 1 1-22-22h22Zm46-46a22 22 0 0 1 0-44a22 22 0 0 1 0 44Z"/></svg>